<svg width="24" height="24" viewBox="0 0 24 24" fill="none" xmlns="http://www.w3.org/2000/svg">
<path d="M20 8.00007L14 2.74007C13.45 2.24811 12.7379 1.97614 12 1.97614C11.262 1.97614 10.55 2.24811 9.99997 2.74007L3.99997 8.00007C3.68234 8.28414 3.42887 8.63262 3.25644 9.02231C3.08402 9.412 2.99659 9.83395 2.99997 10.2601V19.0001C2.99997 19.7957 3.31604 20.5588 3.87865 21.1214C4.44126 21.684 5.20432 22.0001 5.99997 22.0001H18C18.7956 22.0001 19.5587 21.684 20.1213 21.1214C20.6839 20.5588 21 19.7957 21 19.0001V10.2501C21.0019 9.82563 20.9138 9.40561 20.7414 9.01775C20.5691 8.62989 20.3163 8.28302 20 8.00007ZM14 20.0001H9.99997V15.0001C9.99997 14.7348 10.1053 14.4805 10.2929 14.293C10.4804 14.1054 10.7348 14.0001 11 14.0001H13C13.2652 14.0001 13.5195 14.1054 13.7071 14.293C13.8946 14.4805 14 14.7348 14 15.0001V20.0001ZM19 19.0001C19 19.2653 18.8946 19.5196 18.7071 19.7072C18.5195 19.8947 18.2652 20.0001 18 20.0001H16V15.0001C16 14.2044 15.6839 13.4414 15.1213 12.8787C14.5587 12.3161 13.7956 12.0001 13 12.0001H11C10.2043 12.0001 9.44126 12.3161 8.87865 12.8787C8.31604 13.4414 7.99997 14.2044 7.99997 15.0001V20.0001H5.99997C5.73476 20.0001 5.4804 19.8947 5.29287 19.7072C5.10533 19.5196 4.99997 19.2653 4.99997 19.0001V10.2501C5.00015 10.1081 5.03057 9.96776 5.08919 9.83845C5.14781 9.70913 5.2333 9.59378 5.33997 9.50007L11.34 4.25007C11.5225 4.08975 11.7571 4.00133 12 4.00133C12.2429 4.00133 12.4775 4.08975 12.66 4.25007L18.66 9.50007C18.7666 9.59378 18.8521 9.70913 18.9108 9.83845C18.9694 9.96776 18.9998 10.1081 19 10.2501V19.0001Z" fill="#FF4F81"/>
</svg>
