<svg width="24" height="24" viewBox="0 0 24 24" fill="none" xmlns="http://www.w3.org/2000/svg">
<path d="M6.99999 14.83C7.18735 15.0162 7.4408 15.1208 7.70499 15.1208C7.96918 15.1208 8.22263 15.0162 8.40999 14.83L12 11.29L15.54 14.83C15.7274 15.0162 15.9808 15.1208 16.245 15.1208C16.5092 15.1208 16.7626 15.0162 16.95 14.83C17.0437 14.737 17.1181 14.6264 17.1689 14.5046C17.2197 14.3827 17.2458 14.252 17.2458 14.12C17.2458 13.988 17.2197 13.8573 17.1689 13.7354C17.1181 13.6136 17.0437 13.503 16.95 13.41L12.71 9.17C12.617 9.07627 12.5064 9.00187 12.3846 8.9511C12.2627 8.90034 12.132 8.8742 12 8.8742C11.868 8.8742 11.7373 8.90034 11.6154 8.9511C11.4936 9.00187 11.383 9.07627 11.29 9.17L6.99999 13.41C6.90626 13.503 6.83187 13.6136 6.7811 13.7354C6.73033 13.8573 6.70419 13.988 6.70419 14.12C6.70419 14.252 6.73033 14.3827 6.7811 14.5046C6.83187 14.6264 6.90626 14.737 6.99999 14.83Z" fill="#FF4F81"/>
</svg>
