<svg width="24" height="24" viewBox="0 0 24 24" fill="none" xmlns="http://www.w3.org/2000/svg">
<path d="M16.2925 8.7075L18.5925 10.9975L9.00248 10.9975C8.73727 10.9975 8.48291 11.1029 8.29538 11.2904C8.10784 11.4779 8.00248 11.7323 8.00248 11.9975C8.00248 12.2627 8.10784 12.5171 8.29538 12.7046C8.48291 12.8921 8.73727 12.9975 9.00248 12.9975L18.5925 12.9975L16.2925 15.2875C16.1988 15.3805 16.1244 15.4911 16.0736 15.6129C16.0228 15.7348 15.9967 15.8655 15.9967 15.9975C15.9967 16.1295 16.0228 16.2602 16.0736 16.3821C16.1244 16.5039 16.1988 16.6145 16.2925 16.7075C16.3854 16.8012 16.496 16.8756 16.6179 16.9264C16.7398 16.9772 16.8705 17.0033 17.0025 17.0033C17.1345 17.0033 17.2652 16.9772 17.3871 16.9264C17.5089 16.8756 17.6195 16.8012 17.7125 16.7075L21.7125 12.7075C21.8035 12.6124 21.8749 12.5002 21.9225 12.3775C22.0225 12.134 22.0225 11.861 21.9225 11.6175C21.8749 11.4947 21.8035 11.3826 21.7125 11.2875L17.7125 7.2875C17.6192 7.19426 17.5086 7.1203 17.3867 7.06984C17.2649 7.01938 17.1343 6.99341 17.0025 6.99341C16.8706 6.99341 16.7401 7.01938 16.6182 7.06984C16.4964 7.1203 16.3857 7.19426 16.2925 7.2875C16.1992 7.38074 16.1253 7.49143 16.0748 7.61325C16.0244 7.73507 15.9984 7.86564 15.9984 7.9975C15.9984 8.12936 16.0244 8.25993 16.0748 8.38175C16.1253 8.50357 16.1992 8.61426 16.2925 8.7075ZM10.0025 20.9975C10.0025 20.7323 9.89713 20.4779 9.70959 20.2904C9.52205 20.1029 9.2677 19.9975 9.00248 19.9975L5.00248 19.9975C4.73727 19.9975 4.48291 19.8921 4.29538 19.7046C4.10784 19.5171 4.00248 19.2627 4.00248 18.9975L4.00248 4.9975C4.00248 4.73228 4.10784 4.47793 4.29538 4.29039C4.48291 4.10285 4.73727 3.9975 5.00248 3.9975L9.00248 3.9975C9.2677 3.9975 9.52205 3.89214 9.70959 3.7046C9.89713 3.51707 10.0025 3.26271 10.0025 2.9975C10.0025 2.73228 9.89713 2.47793 9.70959 2.29039C9.52205 2.10285 9.2677 1.9975 9.00248 1.9975L5.00248 1.9975C4.20683 1.9975 3.44377 2.31357 2.88116 2.87618C2.31855 3.43879 2.00248 4.20185 2.00248 4.9975L2.00248 18.9975C2.00248 19.7931 2.31855 20.5562 2.88116 21.1188C3.44377 21.6814 4.20683 21.9975 5.00248 21.9975L9.00248 21.9975C9.2677 21.9975 9.52205 21.8921 9.70959 21.7046C9.89713 21.5171 10.0025 21.2627 10.0025 20.9975Z" fill="#848AB8"/>
</svg>
