<svg width="24" height="24" viewBox="0 0 24 24" fill="none" xmlns="http://www.w3.org/2000/svg">
<path d="M21.71 11.29L16.71 6.28999C16.6166 6.1973 16.5057 6.12398 16.3839 6.07421C16.2621 6.02445 16.1316 5.99923 16 5.99999H5C4.20435 5.99999 3.44129 6.31606 2.87868 6.87867C2.31607 7.44128 2 8.20434 2 8.99999V15C2 15.7956 2.31607 16.5587 2.87868 17.1213C3.44129 17.6839 4.20435 18 5 18H16C16.1316 18.0007 16.2621 17.9755 16.3839 17.9258C16.5057 17.876 16.6166 17.8027 16.71 17.71L21.71 12.71C21.8037 12.617 21.8781 12.5064 21.9289 12.3846C21.9797 12.2627 22.0058 12.132 22.0058 12C22.0058 11.868 21.9797 11.7373 21.9289 11.6154C21.8781 11.4936 21.8037 11.3829 21.71 11.29ZM15.59 16H5C4.73478 16 4.48043 15.8946 4.29289 15.7071C4.10536 15.5196 4 15.2652 4 15V8.99999C4 8.73477 4.10536 8.48042 4.29289 8.29288C4.48043 8.10534 4.73478 7.99999 5 7.99999H15.59L19.59 12L15.59 16Z" fill="#8E43E7"/>
</svg>
